<?xml version="1.0" encoding="UTF-8"?>
<svg id="Layer_2" data-name="Layer 2" xmlns="http://www.w3.org/2000/svg" viewBox="0 0 855.46 855.46">
  <defs>
    <style>
      .cls-1 {
        stroke: #fff;
        stroke-miterlimit: 10;
        stroke-width: 4px;
      }

      .cls-1, .cls-2 {
        fill: #00d5be;
      }
    </style>
  </defs>
  <g id="Layer_1-2" data-name="Layer 1-2">
    <g>
      <g>
        <g>
          <polygon class="cls-2" points="162.5 726.45 159.81 729.46 156.85 726.77 159.53 723.8 162.5 726.45"/>
          <path class="cls-2" d="M262.38,791.47l-1.64,3.65c-1.24-.52-2.45-1.08-3.65-1.68l1.68-3.61c1.2.56,2.41,1.12,3.61,1.64h0Z"/>
          <rect class="cls-2" x="172.91" y="737.62" width="4.02" height="4.02" transform="translate(-510.37 410.94) rotate(-51.07)"/>
          <path class="cls-2" d="M226.96,773.18l-2.01,3.49c-1.16-.68-2.33-1.36-3.49-2.05l2.09-3.45c1.12.68,2.29,1.36,3.41,2.01Z"/>
          <polygon class="cls-2" points="210 762.75 207.83 766.12 204.46 763.87 206.67 760.54 210 762.75"/>
          <path class="cls-2" d="M244.45,782.81l-1.85,3.53c-1.2-.6-2.37-1.2-3.57-1.85l1.89-3.57c1.16.64,2.37,1.24,3.53,1.89h0Z"/>
          <rect class="cls-2" x="188.78" y="749.84" width="4.02" height="4.02" transform="translate(-529.26 463.4) rotate(-53.93)"/>
          <polygon class="cls-2" points="280.75 799.29 279.27 803.02 275.54 801.5 277.02 797.81 280.75 799.29"/>
          <polygon class="cls-2" points="376.99 823.96 376.46 827.97 372.49 827.41 373.05 823.44 376.99 823.96"/>
          <polygon class="cls-2" points="396.8 826.01 396.48 830.02 392.47 829.66 392.83 825.69 396.8 826.01"/>
          <polygon class="cls-2" points="416.7 827.05 416.58 831.06 412.57 830.9 412.73 826.93 416.7 827.05"/>
          <path class="cls-2" d="M299.45,806.11l-1.28,3.81c-1.28-.44-2.53-.84-3.81-1.28l1.32-3.81c1.24.44,2.53.88,3.77,1.28Z"/>
          <path class="cls-2" d="M318.46,812.05l-1.08,3.85c-1.28-.36-2.57-.72-3.85-1.12l1.12-3.85c1.28.4,2.57.76,3.81,1.12Z"/>
          <path class="cls-2" d="M337.8,816.98l-.92,3.93c-1.32-.32-2.61-.64-3.93-.92l.96-3.93c1.28.32,2.57.64,3.89.92Z"/>
          <polygon class="cls-2" points="357.29 820.95 356.61 824.92 352.64 824.2 353.36 820.27 357.29 820.95"/>
          <polygon class="cls-2" points="86.21 635.11 82.76 637.2 80.71 633.75 84.16 631.7 86.21 635.11"/>
          <polygon class="cls-2" points="45.61 544.54 41.8 545.7 40.64 541.85 44.49 540.73 45.61 544.54"/>
          <path class="cls-2" d="M59.13,581.96l-3.69,1.56c-.52-1.24-1.04-2.49-1.56-3.73l3.73-1.52c.48,1.24,1,2.49,1.52,3.69Z"/>
          <path class="cls-2" d="M35.95,505.91l-3.93.8c-.28-1.32-.52-2.65-.76-3.97l3.93-.72c.24,1.28.48,2.61.76,3.89Z"/>
          <path class="cls-2" d="M51.91,563.43l-3.77,1.32c-.48-1.24-.92-2.49-1.36-3.77l3.81-1.32c.44,1.24.88,2.49,1.32,3.77Z"/>
          <polygon class="cls-2" points="147.94 712.85 145.13 715.7 142.29 712.89 145.25 710.2 147.94 712.85"/>
          <path class="cls-2" d="M28.69,446.66l-3.97.2c-.08-1.36-.12-2.69-.2-4.05l4.01-.12c.04,1.32.12,2.65.16,3.97h0Z"/>
          <path class="cls-2" d="M30.13,466.52l-3.97.4c-.16-1.36-.28-2.69-.4-4.01l4.01-.36c.12,1.32.24,2.65.36,3.97Z"/>
          <polygon class="cls-2" points="32.54 486.29 28.57 486.85 28 482.88 31.98 482.36 32.54 486.29"/>
          <path class="cls-2" d="M40.32,525.32l-3.89,1c-.32-1.32-.64-2.61-.96-3.93l3.89-.92c.32,1.28.64,2.57.96,3.85Z"/>
          <path class="cls-2" d="M120.91,683.61l-3.05,2.57c-.88-1.04-1.72-2.09-2.57-3.13l3.09-2.53c.84,1.04,1.68,2.05,2.53,3.09Z"/>
          <path class="cls-2" d="M134.06,698.57l-2.93,2.69c-.92-.96-1.81-1.97-2.73-2.97l2.97-2.69c.92,1,1.81,1.97,2.69,2.97h0Z"/>
          <path class="cls-2" d="M67.27,600.13l-3.65,1.72c-.56-1.2-1.12-2.41-1.68-3.65l3.61-1.68c.56,1.2,1.12,2.41,1.72,3.61h0Z"/>
          <path class="cls-2" d="M108.55,668l-3.21,2.41c-.8-1.04-1.6-2.13-2.41-3.21l3.25-2.37c.76,1.04,1.56,2.13,2.37,3.17h0Z"/>
          <polygon class="cls-2" points="76.3 617.86 72.77 619.79 70.89 616.22 74.42 614.37 76.3 617.86"/>
          <path class="cls-2" d="M436.71,831.1c-1.32.04-2.69.04-4.01.08l-.08-4.01c1.32-.04,2.69-.04,4.01-.08l.08,4.01Z"/>
          <polygon class="cls-2" points="96.96 651.84 93.63 654.08 91.42 650.75 94.75 648.55 96.96 651.84"/>
          <polygon class="cls-2" points="826.65 448.83 830.66 449.03 830.42 453.04 826.41 452.8 826.65 448.83"/>
          <polygon class="cls-2" points="790.83 603.94 789.06 607.55 785.45 605.75 787.22 602.18 790.83 603.94"/>
          <polygon class="cls-2" points="781.56 621.83 779.64 625.36 776.11 623.4 778.07 619.91 781.56 621.83"/>
          <path class="cls-2" d="M799.17,585.61c-.52,1.24-1.08,2.49-1.6,3.69l-3.69-1.6c.56-1.2,1.08-2.45,1.6-3.65l3.69,1.56Z"/>
          <path class="cls-2" d="M806.55,566.88c-.44,1.28-.92,2.53-1.4,3.77l-3.73-1.4c.44-1.24.92-2.49,1.36-3.73l3.77,1.36Z"/>
          <path class="cls-2" d="M748.63,672.42c-.84,1.04-1.64,2.13-2.49,3.17l-3.17-2.45c.84-1.04,1.64-2.13,2.45-3.17l3.21,2.45h0Z"/>
          <rect class="cls-2" x="766.65" y="637.81" width="4.02" height="4.02" transform="translate(-180.94 953.63) rotate(-58.06)"/>
          <path class="cls-2" d="M760.46,656.09c-.76,1.12-1.52,2.21-2.33,3.33l-3.29-2.33c.8-1.08,1.52-2.17,2.29-3.25l3.33,2.25Z"/>
          <polygon class="cls-2" points="28.25 426.73 24.23 426.73 24.27 422.71 28.29 422.75 28.25 426.73"/>
          <path class="cls-2" d="M735.99,688.1c-.88,1.04-1.77,2.05-2.65,3.09l-3.01-2.65c.84-1,1.72-2.01,2.57-3.05l3.09,2.61Z"/>
          <polygon class="cls-2" points="825.12 468.68 829.1 469.08 828.69 473.1 824.68 472.65 825.12 468.68"/>
          <rect class="cls-2" x="827.14" y="428.89" width="4.01" height="4.01" transform="translate(390.02 1255.71) rotate(-89.43)"/>
          <path class="cls-2" d="M819.07,508.03l3.97.8-.84,3.97-3.93-.84c.28-1.32.56-2.61.8-3.93h0Z"/>
          <polygon class="cls-2" points="818.51 528.45 817.46 532.34 813.61 531.34 814.62 527.45 818.51 528.45"/>
          <path class="cls-2" d="M813.01,547.83c-.4,1.28-.8,2.57-1.2,3.85l-3.81-1.24c.4-1.24.8-2.53,1.2-3.81l3.81,1.2Z"/>
          <rect class="cls-2" x="822.26" y="488.73" width="4.02" height="4.02" transform="translate(208.31 1226.17) rotate(-80.82)"/>
          <polygon class="cls-2" points="722.6 703.14 719.83 706.07 716.94 703.3 719.67 700.41 722.6 703.14"/>
          <path class="cls-2" d="M535.95,816.5c-1.28.36-2.57.68-3.89,1.04l-1-3.89c1.28-.32,2.57-.68,3.81-1.04l1.08,3.89Z"/>
          <polygon class="cls-2" points="555.21 810.64 551.36 811.89 550.15 808.08 553.92 806.83 555.21 810.64"/>
          <path class="cls-2" d="M574.1,803.82l-3.73,1.44-1.4-3.77c1.2-.44,2.45-.92,3.69-1.4l1.44,3.73h0Z"/>
          <path class="cls-2" d="M496.72,825.28c-1.32.24-2.65.44-3.97.68l-.64-3.97c1.32-.2,2.61-.44,3.93-.64l.68,3.93h0Z"/>
          <path class="cls-2" d="M516.46,821.39c-1.32.28-2.61.56-3.93.84l-.84-3.93c1.28-.28,2.61-.56,3.89-.84l.88,3.93Z"/>
          <polygon class="cls-2" points="476.83 828.21 472.81 828.69 472.37 824.68 476.34 824.24 476.83 828.21"/>
          <path class="cls-2" d="M592.67,796.08c-1.24.52-2.45,1.08-3.69,1.6l-1.6-3.65c1.24-.56,2.45-1.08,3.65-1.6l1.64,3.65h0Z"/>
          <polygon class="cls-2" points="662.27 756.09 659.02 758.42 656.69 755.13 659.94 752.84 662.27 756.09"/>
          <path class="cls-2" d="M693.72,731.14c-1,.88-2.01,1.76-3.01,2.65l-2.65-3.05c1-.88,2.01-1.76,3.01-2.61l2.65,3.01h0Z"/>
          <polygon class="cls-2" points="678.31 744.02 675.14 746.5 672.7 743.33 675.82 740.89 678.31 744.02"/>
          <polygon class="cls-2" points="708.52 717.5 705.63 720.27 702.86 717.38 705.71 714.61 708.52 717.5"/>
          <polygon class="cls-2" points="645.66 767.4 642.25 769.53 640.12 766.16 643.49 764.03 645.66 767.4"/>
          <path class="cls-2" d="M456.81,830.18c-1.32.08-2.69.16-4.01.24l-.24-4.01c1.32-.08,2.65-.16,3.97-.24l.28,4.01Z"/>
          <path class="cls-2" d="M628.49,777.83c-1.16.68-2.33,1.32-3.53,1.97l-1.93-3.49c1.12-.64,2.29-1.28,3.45-1.97l2.01,3.49Z"/>
          <path class="cls-2" d="M610.8,787.42c-1.2.6-2.41,1.2-3.57,1.81l-1.81-3.61c1.16-.6,2.37-1.16,3.53-1.76l1.85,3.57h0Z"/>
          <path class="cls-2" d="M815.22,330.29l3.89-.96c.32,1.28.64,2.61.96,3.89l-3.93.92c-.28-1.28-.6-2.57-.92-3.85h0Z"/>
          <polygon class="cls-2" points="803.62 292.23 807.39 290.86 808.76 294.63 804.95 295.96 803.62 292.23"/>
          <polygon class="cls-2" points="809.88 311.12 813.73 309.96 814.9 313.81 811.04 314.93 809.88 311.12"/>
          <polygon class="cls-2" points="819.55 349.75 823.52 348.95 824.24 352.92 820.31 353.64 819.55 349.75"/>
          <polygon class="cls-2" points="822.96 369.36 826.93 368.76 827.49 372.77 823.52 373.29 822.96 369.36"/>
          <rect class="cls-2" x="779.97" y="236.54" width="4" height="4" transform="translate(-20.15 396.58) rotate(-28.11)"/>
          <path class="cls-2" d="M788.3,255.52l3.61-1.77c.6,1.2,1.16,2.41,1.72,3.65l-3.65,1.68c-.56-1.2-1.12-2.41-1.68-3.57h0Z"/>
          <path class="cls-2" d="M769.37,220.51l3.45-2.09c.68,1.16,1.36,2.29,2.05,3.45l-3.45,2.05c-.68-1.12-1.36-2.29-2.05-3.41Z"/>
          <path class="cls-2" d="M796.44,273.66l3.69-1.52c.52,1.2,1,2.45,1.52,3.69l-3.73,1.52c-.48-1.24-1-2.45-1.48-3.69h0Z"/>
          <polygon class="cls-2" points="497.97 34.42 498.65 30.49 502.62 31.21 501.9 35.14 497.97 34.42"/>
          <path class="cls-2" d="M438.56,28.41l.12-4.01c1.32,0,2.65.08,4.01.12l-.16,4.01c-1.32-.04-2.65-.12-3.97-.12Z"/>
          <polygon class="cls-2" points="458.45 29.41 458.74 25.44 462.75 25.76 462.43 29.73 458.45 29.41"/>
          <polygon class="cls-2" points="478.27 31.41 478.75 27.44 482.76 27.96 482.2 31.94 478.27 31.41"/>
          <path class="cls-2" d="M826.77,409l4.01-.2c.08,1.36.12,2.69.16,4.05l-4.01.12c-.04-1.32-.08-2.65-.16-3.97h0Z"/>
          <polygon class="cls-2" points="28.81 406.83 24.8 406.63 25.04 402.62 29.05 402.86 28.81 406.83"/>
          <path class="cls-2" d="M517.5,38.39l.88-3.89c1.28.28,2.61.6,3.93.92l-.96,3.89c-1.28-.32-2.57-.6-3.85-.92Z"/>
          <path class="cls-2" d="M825.37,389.14l3.97-.4c.12,1.32.24,2.69.36,4.01l-3.97.32c-.12-1.28-.24-2.61-.36-3.93h0Z"/>
          <path class="cls-2" d="M610.84,72.57l1.81-3.57c1.2.6,2.41,1.24,3.61,1.85l-1.89,3.57c-1.2-.64-2.37-1.24-3.53-1.85h0Z"/>
          <path class="cls-2" d="M628.29,82.12l2.01-3.45c1.16.68,2.33,1.36,3.49,2.05l-2.05,3.45c-1.12-.68-2.29-1.36-3.45-2.05Z"/>
          <polygon class="cls-2" points="645.3 92.59 647.47 89.22 650.83 91.42 648.63 94.79 645.3 92.59"/>
          <path class="cls-2" d="M574.54,56.08l1.44-3.73c1.28.48,2.53,1,3.77,1.48l-1.52,3.73c-1.24-.48-2.45-1-3.69-1.48Z"/>
          <path class="cls-2" d="M758.62,203.78l3.33-2.25c.72,1.08,1.48,2.21,2.25,3.33l-3.37,2.21c-.72-1.12-1.44-2.21-2.21-3.29h0Z"/>
          <rect class="cls-2" x="556.3" y="45.97" width="4.02" height="4.02" transform="translate(334.67 561.79) rotate(-71.39)"/>
          <polygon class="cls-2" points="661.71 103.86 664.07 100.61 667.32 103.02 664.95 106.22 661.71 103.86"/>
          <polygon class="cls-2" points="592.87 63.87 594.56 60.22 598.21 61.9 596.52 65.51 592.87 63.87"/>
          <polygon class="cls-2" points="734.67 172.01 737.76 169.44 740.33 172.53 737.2 175.1 734.67 172.01"/>
          <path class="cls-2" d="M721.55,157.05l2.93-2.73c.92,1,1.81,1.97,2.73,2.97l-3.01,2.69c-.88-.96-1.77-1.97-2.65-2.93h0Z"/>
          <polygon class="cls-2" points="677.59 115.97 680.08 112.84 683.21 115.37 680.68 118.5 677.59 115.97"/>
          <rect class="cls-2" x="747.84" y="185.98" width="4.01" height="4.01" transform="translate(37.18 487.5) rotate(-36.87)"/>
          <polygon class="cls-2" points="692.79 128.85 695.48 125.84 698.49 128.53 695.76 131.5 692.79 128.85"/>
          <path class="cls-2" d="M710.2,145.25c-.92-.96-1.89-1.89-2.85-2.81l2.81-2.89c.96.96,1.93,1.89,2.89,2.85l.28.28-2.85,2.85-.28-.28h0Z"/>
          <polygon class="cls-2" points="536.79 43.37 537.88 39.48 541.73 40.6 540.6 44.45 536.79 43.37"/>
          <path class="cls-2" d="M64.55,251.67c.6-1.2,1.16-2.41,1.76-3.61l3.61,1.8c-.6,1.16-1.16,2.37-1.76,3.57l-3.61-1.77h0Z"/>
          <path class="cls-2" d="M73.77,233.78c.64-1.16,1.32-2.33,1.97-3.53l3.49,1.97c-.64,1.16-1.28,2.33-1.93,3.49l-3.53-1.93h0Z"/>
          <polygon class="cls-2" points="94.91 199.53 97.2 196.2 100.49 198.48 98.2 201.77 94.91 199.53"/>
          <rect class="cls-2" x="147.65" y="136.12" width="4" height="4" transform="translate(-53.96 141.94) rotate(-43.78)"/>
          <path class="cls-2" d="M132.7,152.47c.92-1,1.85-1.97,2.77-2.93l2.93,2.73c-.92.96-1.85,1.97-2.73,2.93l-2.97-2.73Z"/>
          <polygon class="cls-2" points="106.71 183.2 109.19 179.99 112.36 182.48 109.91 185.65 106.71 183.2"/>
          <path class="cls-2" d="M119.34,167.52c.88-1.04,1.72-2.09,2.61-3.09l3.05,2.61c-.88,1-1.72,2.05-2.61,3.05l-3.05-2.57Z"/>
          <path class="cls-2" d="M83.92,216.37c.68-1.12,1.4-2.29,2.13-3.41l3.41,2.13c-.72,1.12-1.44,2.29-2.13,3.41l-3.41-2.13Z"/>
          <path class="cls-2" d="M418.54,24.35c1.36-.04,2.69-.08,4.01-.08l.08,4.01c-1.32,0-2.69.04-4.01.08l-.08-4.01Z"/>
          <path class="cls-2" d="M36.35,347.58l-3.93-.8c.24-1.32.52-2.65.8-3.93l3.93.84c-.28,1.28-.56,2.61-.8,3.89h0Z"/>
          <path class="cls-2" d="M56.24,270c.52-1.2,1.04-2.45,1.56-3.69l3.69,1.6c-.52,1.2-1.04,2.45-1.56,3.65l-3.69-1.56Z"/>
          <polygon class="cls-2" points="30.33 386.97 26.32 386.53 26.76 382.56 30.77 383 30.33 386.97"/>
          <path class="cls-2" d="M48.82,288.74c.48-1.24.92-2.53,1.4-3.77l3.77,1.4c-.48,1.24-.92,2.49-1.4,3.73l-3.77-1.36h0Z"/>
          <polygon class="cls-2" points="36.91 327.17 37.91 323.27 41.8 324.32 40.8 328.17 36.91 327.17"/>
          <path class="cls-2" d="M42.41,307.79c.4-1.28.8-2.53,1.2-3.81l3.81,1.2c-.4,1.28-.8,2.53-1.2,3.81l-3.81-1.2Z"/>
          <polygon class="cls-2" points="32.86 367.2 28.89 366.6 29.49 362.62 33.46 363.27 32.86 367.2"/>
          <polygon class="cls-2" points="319.3 39 323.19 37.95 324.2 41.8 320.39 42.89 319.3 39"/>
          <path class="cls-2" d="M338.8,34.1c1.32-.28,2.61-.6,3.93-.88l.84,3.93c-1.28.28-2.61.56-3.89.84l-.88-3.89h0Z"/>
          <polygon class="cls-2" points="300.05 44.85 303.9 43.61 305.1 47.42 301.33 48.66 300.05 44.85"/>
          <polygon class="cls-2" points="358.53 30.17 362.5 29.53 363.15 33.46 359.22 34.14 358.53 30.17"/>
          <path class="cls-2" d="M161.58,124.44c1-.88,2.01-1.77,3.05-2.65l2.61,3.05c-1,.88-2.01,1.77-3.01,2.61l-2.65-3.01h0Z"/>
          <polygon class="cls-2" points="378.43 27.24 382.44 26.76 382.88 30.77 378.91 31.21 378.43 27.24"/>
          <polygon class="cls-2" points="281.16 51.67 284.89 50.27 286.33 54 282.6 55.44 281.16 51.67"/>
          <path class="cls-2" d="M398.45,25.28c1.32-.08,2.69-.16,4.01-.24l.24,3.97c-1.32.08-2.65.2-3.97.28l-.28-4.01Z"/>
          <polygon class="cls-2" points="262.62 59.45 266.27 57.81 267.88 61.5 264.23 63.1 262.62 59.45"/>
          <path class="cls-2" d="M176.98,111.56c1.04-.84,2.09-1.68,3.17-2.49l2.45,3.17c-1.04.8-2.09,1.6-3.13,2.45l-2.49-3.13h0Z"/>
          <path class="cls-2" d="M209.64,88.17c1.12-.76,2.25-1.44,3.37-2.17l2.17,3.37c-1.12.72-2.25,1.44-3.37,2.17l-2.17-3.37Z"/>
          <path class="cls-2" d="M193.03,99.45c1.08-.76,2.17-1.56,3.25-2.33l2.33,3.29c-1.08.76-2.17,1.52-3.25,2.29l-2.33-3.25Z"/>
          <path class="cls-2" d="M244.49,68.12c1.16-.6,2.37-1.2,3.57-1.8l1.76,3.61c-1.16.56-2.33,1.16-3.53,1.76l-1.8-3.57Z"/>
          <path class="cls-2" d="M226.8,77.7c1.16-.68,2.33-1.32,3.49-2.01l1.97,3.53c-1.16.64-2.29,1.28-3.45,1.97l-2.01-3.49h0Z"/>
          <path class="cls-2" d="M737.72,202.5l-191.58-139.19h-118.29l-.12-.08-.12.08h-118.29l-.52.36L117.74,202.5l-.2.6-73.01,224.63.2.6,73.01,224.63.52.36,191.06,138.83h118.37l.04.04.04-.04h118.37l191.58-139.19.2-.64,73.01-224.59-.2-.64-73.01-224.59h0ZM635.35,140.53l-35.14,48.01-64.3-46.73h0c.17-.41.29-.84.4-1.28h99.04ZM319.14,140.53c.11.46.24.91.42,1.34l-64.32,46.71-35.14-48.05h99.04ZM121.47,436.33c.25.02.48.07.73.07.23,0,.44-.05.66-.07h0l26.43,81.4-60.81,20.1,32.97-101.48v-.02h.02ZM220.1,714.93l35.14-48.05,64.31,46.71c-.18.43-.31.88-.42,1.34h-99.03,0ZM536.31,714.93c-.11-.46-.24-.91-.42-1.34l64.31-46.71,35.14,48.05h-99.04,0ZM733.97,419.09c-.21-.01-.41-.06-.62-.06-.26,0-.51.05-.76.08v-.04l-26.45-81.35,60.77-20.1-32.93,101.44v.03h-.01ZM674.53,253.4l26.55,81.79-18.25,6.02c-12.8-38.03-34.34-73.77-64.62-104.01-9.39-9.39-19.33-17.97-29.76-25.75l12.64-17.29,64.74,47.05h0c-.48,1.08-.76,2.27-.76,3.53,0,4.8,3.89,8.69,8.69,8.69.26,0,.5-.05.76-.08l.02.05h-.01ZM597.83,191.79l-12.64,17.29c-44.89-32.49-98.56-50.26-155-50.74l-.48-.36v-17.45h89.72c.91,3.82,4.33,6.67,8.43,6.67,2.16,0,4.11-.82,5.63-2.12l.03.03,64.3,46.69h.01ZM425.71,140.53v17.49l-.4.32c-56.44.48-110.15,18.21-155.08,50.74l-12.64-17.29,64.3-46.69.03-.02c1.52,1.3,3.47,2.12,5.63,2.12,4.1,0,7.52-2.85,8.43-6.67h89.73ZM190.39,244.48c0-1.19-.24-2.33-.68-3.36l64.64-46.96,12.64,17.29c-10.43,7.78-20.38,16.37-29.76,25.75-30.29,30.24-51.83,65.99-64.62,104.01l-18.25-6.06,26.63-82.03v-.03c.25.02.47.07.71.07,4.8,0,8.69-3.89,8.69-8.69h0ZM130.89,427.73c0-3.16-1.7-5.9-4.22-7.42v-.03l26.44-81.31,18.25,6.06c-17.25,53.71-17.21,111.75,0,165.42l-18.25,6.02-26.43-81.31h0c2.52-1.54,4.22-4.27,4.22-7.43h0ZM180.99,602.31l-26.68-82.03,18.33-6.06c12.8,38.03,34.34,73.77,64.58,104.01,9.39,9.39,19.33,17.97,29.76,25.79l-12.64,17.25-64.63-46.95c.43-1.03.67-2.16.67-3.34,0-4.8-3.89-8.69-8.69-8.69-.24,0-.46.05-.7.07l-.02-.05h.02ZM257.61,663.64l12.64-17.25h.04c44.89,32.49,98.56,50.22,154.96,50.7l.48.36v17.49h-89.71c-.91-3.83-4.33-6.69-8.44-6.69-2.17,0-4.12.82-5.64,2.13h-.02l-64.3-46.75h-.01ZM429.73,714.94v-17.49l.48-.36c35.1-.28,69.15-7.3,100.68-20.34,19.13-7.9,37.3-18.09,54.27-30.37h.04l12.64,17.25-64.3,46.73-.02.02c-1.52-1.31-3.48-2.13-5.64-2.13-4.11,0-7.53,2.86-8.44,6.69h-89.71ZM665.07,610.71c0,1.26.28,2.46.77,3.54h-.01l-64.74,47.02-12.64-17.25c10.43-7.82,20.38-16.41,29.76-25.79,30.24-30.24,51.79-65.99,64.58-104.01l18.33,6.06-26.59,81.79v.03c-.27-.02-.51-.08-.77-.08-4.8,0-8.69,3.89-8.69,8.69ZM429.73,162.95l66.19,48.1,2.77,2.01,2.77,2.01,51.83,37.67,3.25,2.37,52.11,37.83,2.77,2.05,2.77,1.97,63.38,46.05,1.97,1.44-.76,2.37-24.23,74.49-1.04,3.21-1.04,3.25-21.18,65.22-1.24,3.77-21.38,65.78-1.04,3.21-1.04,3.29-22.46,69.03-.76,2.37h-311.19l-.76-2.37-22.42-69.03-1.08-3.29-1.04-3.25-21.38-65.74-1.2-3.77-21.18-65.22-1.08-3.25-1.04-3.29-24.19-74.37-.76-2.41,1.97-1.44,63.34-46.01,2.81-2.01,2.73-2.01,52.11-37.87,3.25-2.37,51.87-37.67,2.73-2.01,2.77-2.01,66.19-48.1.88-.64h2.25l.88.64h-.1ZM425.72,692.52l-66.15-48.1h136.34l-66.19,48.1-.84.6h-2.33l-.84-.6h0ZM654.56,434.19l24.19,74.45.76,2.37-2.01,1.44-63.34,46.05,19.66-60.49,1.24-3.81,19.49-60.01h.01ZM176.74,508.64l24.19-74.41,19.45,59.97,1.24,3.81,19.66,60.45-63.34-46.01-1.97-1.44.76-2.33v-.04h0ZM299.81,249.47l-3.25,2.37-47.61,34.62,22.42-69.03.76-2.37h75.09l-47.41,34.42h0ZM508.28,215.05h75.05l.76,2.37,22.46,69.03-47.65-34.62-3.25-2.37-47.37-34.42h0ZM677.52,517.42c-12.8,35.78-33.49,69.36-62.09,97.96-8.7,8.7-17.89,16.73-27.52,23.99l24.15-74.37,65.46-47.57h0ZM581.05,644.42c-42.36,30.12-92.46,47.01-145.17,48.58l66.83-48.58h78.34ZM419.6,693c-52.71-1.56-102.81-18.45-145.17-48.58h78.34l66.83,48.58ZM240.06,615.38c-28.6-28.6-49.3-62.13-62.05-97.92l65.42,47.53,24.15,74.37c-9.63-7.26-18.81-15.28-27.52-23.99h0ZM173.83,350.76l24.99,76.98-24.99,76.98c-15.12-50.1-15.12-103.85,0-153.95h0ZM178,338c12.76-35.78,33.45-69.35,62.05-97.96,8.7-8.7,17.93-16.73,27.56-23.99l-24.19,74.41-65.42,47.53h0ZM274.35,211.04c42.36-30.12,92.5-47.05,145.29-48.62l-66.87,48.62h-78.42ZM435.88,162.42c52.75,1.56,102.89,18.49,145.25,48.62h-78.38l-66.87-48.62h0ZM587.87,216.05c9.63,7.26,18.85,15.28,27.56,23.99,28.6,28.6,49.3,62.17,62.09,98l-65.46-47.57-24.19-74.41h0ZM681.69,504.78l-25.03-77.06,25.03-77.06c15.12,50.14,15.12,103.93,0,154.11h0ZM702.35,338.99l26.43,81.35v.02c-2.45,1.54-4.1,4.24-4.1,7.36s1.65,5.82,4.1,7.35l-26.43,81.39-18.25-6.02c17.21-53.67,17.25-111.71.04-165.42l18.21-6.02h0ZM734,436.34l32.97,101.48-60.81-20.14,26.43-81.35v-.02c.27.02.51.08.78.08.21,0,.41-.05.62-.06h0ZM765.77,541.64l-86.2,62.62c-.38-.34-.77-.65-1.21-.92h0l26.55-81.83,60.85,20.14h.01ZM669.34,618.13h0l-30.69,94.47-35.18-48.1,64.78-47.09.04-.03c.33.27.68.52,1.04.74h.01ZM519.88,720.3l-90.13,65.46v-66.83h89.71c.11.46.24.92.42,1.35h0v.02ZM425.74,785.76l-90.13-65.46h0c.18-.45.31-.9.42-1.36h89.71v66.83h0ZM216.83,712.59l-30.61-94.22h0c.41-.26.79-.55,1.15-.86l.02.02,64.62,46.97-35.18,48.1h0ZM89.71,541.63l60.85-20.14,26.63,82.03v.03c-.39.24-.75.52-1.11.82h-.02l-86.36-62.75h.01ZM121.48,419.05l-32.97-101.44,60.81,20.1-26.43,81.35v.03c-.23-.02-.44-.07-.66-.07-.25,0-.48.05-.73.07v-.04h-.02ZM89.71,313.75l86.32-62.7.05-.04c.35.3.73.59,1.13.83l-.02.05-26.63,81.99-60.85-20.14h0ZM186.22,237.05l30.6-94.22,35.18,48.06-64.62,46.97-.03.02c-.36-.3-.73-.58-1.13-.83ZM335.6,135.13l90.13-65.5v66.87h-89.71c-.11-.47-.24-.93-.42-1.37ZM429.74,69.63l90.13,65.5c-.18.44-.31.9-.42,1.37h-89.71v-66.87h0ZM638.65,142.84l30.69,94.43v.02c-.35.22-.69.46-1.01.72l-.03-.02-64.82-47.09,35.18-48.06h0ZM765.77,313.76l-60.85,20.14-26.55-81.79v-.02c.44-.28.84-.59,1.23-.94,0,0,.01,0,.01,0l86.16,62.62h0ZM806.72,427.72l-35.66,109.71-33.21-102.29v-.02c2.51-1.52,4.21-4.26,4.21-7.42s-1.7-5.9-4.22-7.42v-.03l33.22-102.25,35.66,109.71h0ZM734.32,650.47l-92.14,66.95-.64-.84,31.61-97.23v-.02c.22.02.42.06.63.06,4.8,0,8.69-3.89,8.69-8.69,0-1.12-.23-2.17-.61-3.15l86.96-63.17-34.5,106.1h0ZM433.31,788.14l88.93-64.62h.02c1.52,1.29,3.47,2.11,5.63,2.11,4.1,0,7.52-2.85,8.43-6.68h101.97l.64.84-94.06,68.35h-111.56ZM216.54,719.79l.64-.84h101.97c.91,3.83,4.33,6.68,8.43,6.68,2.16,0,4.11-.82,5.63-2.12h.02l88.93,64.63h-111.51l-94.1-68.35h0ZM86.7,544.42l87,63.18h0c-.43,1.05-.68,2.18-.68,3.37,0,4.8,3.89,8.69,8.69,8.69.23,0,.45-.05.68-.07v.04l31.54,96.95-.64.84-92.14-66.95-34.46-106.06h.01ZM48.79,427.73l35.62-109.67,33.25,102.25v.03c-2.47,1.53-4.14,4.25-4.14,7.38s1.67,5.85,4.14,7.38v.02l-33.26,102.29-35.62-109.67h.01ZM121.15,204.98l92.14-66.95.64.84-31.53,96.95v.02c-.24-.02-.46-.07-.69-.07-4.8,0-8.69,3.89-8.69,8.69,0,1.19.24,2.32.67,3.36l-87,63.18s34.46-106.02,34.46-106.02ZM422.15,67.32l-88.93,64.62h0c-1.52-1.31-3.48-2.13-5.64-2.13-4.11,0-7.54,2.86-8.44,6.7h-101.96l-.64-.84,94.1-68.35h111.51ZM638.92,135.67l-.64.84h-101.96c-.9-3.84-4.33-6.7-8.44-6.7-2.14,0-4.08.81-5.6,2.09h0l-88.93-64.59h111.51l94.06,68.35h0ZM734.31,204.98l34.46,106.02-86.91-63.13c.38-.98.61-2.03.61-3.14,0-4.8-3.89-8.69-8.69-8.69-.21,0-.41.05-.62.06v-.04l-31.62-97.19.64-.84,92.14,66.95h-.01Z"/>
        </g>
        <path class="cls-2" d="M427.73,855.46c-114.25,0-221.66-44.49-302.45-125.28C44.49,649.39,0,541.98,0,427.73S44.49,206.07,125.28,125.28C206.07,44.49,313.48,0,427.73,0s221.66,44.49,302.45,125.28c80.79,80.79,125.28,188.2,125.28,302.45s-44.49,221.66-125.28,302.45-188.2,125.28-302.45,125.28h0ZM427.73,5.24C194.76,5.23,5.23,194.76,5.23,427.73s189.53,422.49,422.49,422.49,422.49-189.53,422.49-422.49S660.69,5.23,427.73,5.23h0Z"/>
      </g>
      <g>
        <polygon class="cls-1" points="401.06 270.63 472.12 278.65 485.24 295.86 431.92 323.05 381.86 285.65 401.06 270.63"/>
        <polygon class="cls-1" points="309.7 311.09 440.44 334.95 534.13 308.7 546.85 343.7 430.75 356.83 295.4 344.99 309.7 311.09"/>
        <polygon class="cls-1" points="294.34 377.22 432.01 366.63 552.66 380.84 561.12 414.38 434.49 386.23 305.45 409.6 294.34 377.22"/>
        <polygon class="cls-1" points="433.55 396.53 449.98 412.48 450.76 485.65 433.55 584.82 421.13 548.65 410.86 426.31 433.55 396.53"/>
      </g>
    </g>
  </g>
</svg>